<svg width="30" height="30" viewBox="0 0 30 30" fill="none" xmlns="http://www.w3.org/2000/svg">
<g clip-path="url(#clip0)">
<path fill-rule="evenodd" clip-rule="evenodd" d="M15 30C23.2838 30 30 23.2837 30 15C30 6.71625 23.2838 -2.93577e-07 15 -6.55671e-07C6.71626 -1.01776e-06 7.33582e-06 6.71625 6.97372e-06 15C8.51898e-06 23.2837 6.71626 30 15 30ZM19.9137 11.0517C20.0538 11.1898 20.1329 11.3783 20.1331 11.5751L20.1331 12.1489L18.6218 12.1489L18.6218 11.5751C18.6287 11.1636 18.9646 10.8338 19.3763 10.8344C19.577 10.8338 19.7699 10.9118 19.9137 11.0517ZM10.6623 11.5751C10.6646 11.3791 10.5883 11.1906 10.4502 11.0517C10.3148 10.9123 10.1286 10.8338 9.93418 10.8344C9.73858 10.835 9.55144 10.9133 9.41389 11.0525C9.27633 11.1914 9.19978 11.3795 9.20136 11.5751L9.20136 12.1489L10.6623 12.1489L10.6623 11.5751ZM15.9202 15.3734C15.5864 15.7088 15.1323 15.8965 14.6592 15.8949C13.7892 15.901 13.0438 15.2741 12.9011 14.4159L16.4173 14.4159C16.3535 14.7784 16.1799 15.1127 15.9202 15.3734ZM12.3582 18.9248C12.4107 18.876 12.4798 18.8488 12.5514 18.849L21.8772 18.849C22.5776 18.8488 23.1475 18.2857 23.1557 17.5855L23.1557 9.73577C23.1475 9.03561 22.5778 8.47202 21.8772 8.47143L7.44093 8.47143C6.74372 8.4732 6.17935 9.03856 6.17875 9.73577L6.17876 17.5855C6.17935 18.2827 6.74392 18.8477 7.44093 18.849L8.37959 18.849C8.54941 18.8473 8.69012 18.9803 8.69759 19.1499L8.69759 22.1897L12.3582 18.9248ZM18.0173 11.5751C18.0234 11.0288 18.3556 10.5392 18.8609 10.332C19.3663 10.1246 19.9466 10.2395 20.3346 10.6239C20.5904 10.8746 20.7355 11.217 20.7376 11.5751L20.7376 12.4439C20.7359 12.6131 20.5997 12.7503 20.4303 12.7535L18.3444 12.7535C18.1775 12.7535 18.0173 12.6108 18.0173 12.4439L18.0173 11.5751ZM12.5733 13.8114L16.7449 13.8114C16.825 13.8108 16.9017 13.8421 16.9584 13.8985C17.0153 13.9548 17.0472 14.0314 17.0472 14.1113C17.0412 15.426 15.9737 16.4884 14.6592 16.4884C13.3445 16.4884 12.2771 15.426 12.271 14.1113C12.2712 14.0314 12.3031 13.9548 12.3597 13.8985C12.4166 13.8423 12.4934 13.8108 12.5733 13.8114ZM8.59684 12.4439L8.59684 11.5751C8.59507 10.8336 9.19506 10.2313 9.93655 10.2299C9.95898 10.2299 9.97866 10.2305 10.0009 10.2317C10.0094 10.2321 10.0166 10.2328 10.0251 10.2334L10.0345 10.2341C10.0448 10.2348 10.055 10.2355 10.0654 10.2366C10.076 10.2375 10.0861 10.2389 10.0964 10.2403L10.0965 10.2403L10.1054 10.2415C10.1139 10.2427 10.1223 10.2435 10.1306 10.2446C10.1471 10.2472 10.1634 10.2502 10.1798 10.2531L10.1955 10.2559C10.2166 10.26 10.2372 10.2647 10.2581 10.2698L10.2597 10.2702C10.2768 10.2746 10.2935 10.2793 10.3104 10.2842C10.3131 10.2851 10.3158 10.2858 10.3185 10.2865C10.32 10.2869 10.3215 10.2873 10.323 10.2877C10.3634 10.2999 10.4029 10.3141 10.4417 10.3301L10.4462 10.3318C10.4641 10.3393 10.4818 10.3472 10.4995 10.3554L10.5014 10.3563C10.503 10.3569 10.5045 10.3576 10.5058 10.3584C10.5234 10.3667 10.5407 10.3753 10.5578 10.3844L10.5643 10.3877C10.5804 10.3964 10.5964 10.4056 10.6121 10.4149L10.6167 10.4174L10.6214 10.42C10.6345 10.4279 10.6473 10.4361 10.6603 10.4446L10.6659 10.4481C10.6696 10.4504 10.6733 10.4527 10.6769 10.4552C10.6882 10.4627 10.6992 10.4707 10.7103 10.4788L10.7103 10.4788C10.7172 10.4837 10.7241 10.4883 10.7308 10.4932C10.7388 10.4992 10.7466 10.5053 10.7544 10.5115L10.7544 10.5116L10.764 10.5192C10.7655 10.5203 10.767 10.5215 10.7685 10.5226C10.7733 10.5264 10.7782 10.5302 10.7829 10.5341L10.7924 10.5421L10.8132 10.5603L10.8207 10.5667C10.825 10.5703 10.8293 10.5739 10.8333 10.5778C10.8392 10.5832 10.8449 10.5887 10.8506 10.5943L10.8593 10.6026L10.8668 10.6097C10.87 10.6127 10.8732 10.6156 10.8764 10.6187C10.8782 10.6204 10.88 10.6221 10.8817 10.6239L10.8774 10.6239C11.1295 10.8759 11.2698 11.2185 11.2668 11.5751L11.2668 12.4439C11.2692 12.5238 11.2397 12.6013 11.1846 12.6594C11.1297 12.7174 11.0539 12.7513 10.974 12.7535L8.88788 12.7535C8.80819 12.7513 8.73262 12.7174 8.67792 12.6592C8.62321 12.6011 8.59409 12.5236 8.59684 12.4439ZM19.0248 22.5265C18.8845 23.4804 18.0634 24.1854 17.0991 24.1799L17.0993 24.1799C16.0628 24.1797 15.2076 23.3684 15.1529 22.3331C15.0982 21.298 15.8631 20.4011 16.8939 20.2917C17.9246 20.1823 18.8609 20.8986 19.0248 21.922L21.5537 21.922C22.3649 21.924 23.1433 21.6034 23.7179 21.031C24.2924 20.4585 24.6157 19.6812 24.6167 18.8701L24.6167 15.6279C24.3559 15.7906 24.0643 15.8975 23.7603 15.9423L23.7603 11.3791C24.8922 11.5462 25.7309 12.5169 25.732 13.6608C25.7238 14.1817 25.5443 14.6855 25.2212 15.094L25.2212 18.8703C25.2188 20.8928 23.5765 22.5303 21.5537 22.5265L19.0248 22.5265Z" fill="white"/>
</g>
<defs>
<clipPath id="clip0">
<rect width="30" height="30" fill="white"/>
</clipPath>
</defs>
</svg>
