<svg width="30" height="30" viewBox="0 0 30 30" fill="none" xmlns="http://www.w3.org/2000/svg">
<g clip-path="url(#clip0)">
<path fill-rule="evenodd" clip-rule="evenodd" d="M15 30C23.2837 30 30 23.2837 30 15C30 6.71625 23.2837 -6.5567e-07 15 -6.55671e-07C6.71625 -6.5567e-07 -2.93577e-07 6.71625 -6.55671e-07 15C8.89583e-07 23.2837 6.71625 30 15 30ZM19.9137 11.0517C20.0538 11.1898 20.1329 11.3783 20.1331 11.5751L20.1331 12.1489L18.6218 12.1489L18.6218 11.5751C18.6287 11.1636 18.9646 10.8338 19.3763 10.8344C19.577 10.8338 19.7699 10.9118 19.9137 11.0517ZM10.6623 11.5751C10.6646 11.3791 10.5883 11.1906 10.4501 11.0517C10.3147 10.9123 10.1286 10.8338 9.93416 10.8344C9.73856 10.835 9.55142 10.9133 9.41387 11.0525C9.27631 11.1914 9.19976 11.3795 9.20134 11.5751L9.20134 12.1489L10.6623 12.1489L10.6623 11.5751ZM15.9202 15.3734C15.5864 15.7088 15.1323 15.8965 14.6592 15.8949C13.7892 15.901 13.0438 15.2741 12.9011 14.4159L16.4173 14.4159C16.3535 14.7784 16.1799 15.1127 15.9202 15.3734ZM12.3582 18.9248C12.4107 18.876 12.4798 18.8489 12.5514 18.8491L21.8772 18.8491C22.5776 18.8489 23.1475 18.2857 23.1557 17.5855L23.1557 9.73577C23.1475 9.03561 22.5778 8.47202 21.8772 8.47143L7.44091 8.47143C6.74371 8.4732 6.17933 9.03856 6.17874 9.73577L6.17874 17.5855C6.17933 18.2827 6.7439 18.8477 7.44091 18.8491L8.37957 18.8491C8.5494 18.8473 8.6901 18.9803 8.69758 19.1499L8.69758 22.1897L12.3582 18.9248ZM18.0173 11.5751C18.0234 11.0288 18.3556 10.5392 18.8609 10.332C19.3662 10.1246 19.9466 10.2395 20.3346 10.6239C20.5904 10.8746 20.7355 11.217 20.7376 11.5751L20.7376 12.4439C20.7359 12.6132 20.5997 12.7503 20.4303 12.7535L18.3443 12.7535C18.1775 12.7535 18.0173 12.6108 18.0173 12.4439L18.0173 11.5751ZM12.5732 13.8114L16.7449 13.8114C16.825 13.8108 16.9017 13.8421 16.9584 13.8985C17.0153 13.9548 17.0471 14.0314 17.0471 14.1113C17.0412 15.426 15.9737 16.4884 14.6592 16.4884C13.3444 16.4884 12.2771 15.426 12.271 14.1113C12.2712 14.0314 12.3031 13.9548 12.3597 13.8985C12.4166 13.8423 12.4934 13.8108 12.5732 13.8114ZM8.59682 12.4439L8.59682 11.5751C8.59505 10.8336 9.19505 10.2313 9.93653 10.2299C9.95896 10.2299 9.97864 10.2305 10.0009 10.2317C10.0093 10.2321 10.0166 10.2328 10.0251 10.2334C10.0282 10.2337 10.0313 10.2339 10.0344 10.2341C10.0448 10.2348 10.055 10.2355 10.0654 10.2366C10.076 10.2375 10.0861 10.2389 10.0964 10.2403L10.1054 10.2415L10.1177 10.243L10.1306 10.2447C10.1471 10.2472 10.1634 10.2502 10.1797 10.2531L10.1798 10.2531L10.1955 10.2559C10.2166 10.26 10.2372 10.2647 10.2581 10.2698L10.2597 10.2702C10.2768 10.2746 10.2935 10.2793 10.3104 10.2842C10.3131 10.2851 10.3158 10.2858 10.3185 10.2865L10.323 10.2877C10.3634 10.2999 10.4029 10.3141 10.4417 10.3301L10.4462 10.3318C10.4641 10.3393 10.4818 10.3472 10.4995 10.3554L10.5014 10.3563C10.5024 10.3567 10.5034 10.3571 10.5044 10.3576C10.5049 10.3578 10.5053 10.3581 10.5058 10.3584C10.5233 10.3667 10.5407 10.3753 10.5578 10.3844L10.5643 10.3877C10.5804 10.3964 10.5963 10.4056 10.6121 10.4149C10.615 10.4166 10.6184 10.4182 10.6213 10.42C10.6345 10.4279 10.6473 10.4361 10.6603 10.4446C10.6658 10.4481 10.6715 10.4515 10.6768 10.4552C10.6882 10.4627 10.6993 10.4708 10.7103 10.4788C10.7172 10.4837 10.7241 10.4883 10.7308 10.4932C10.7422 10.5017 10.753 10.5105 10.764 10.5192L10.7684 10.5226C10.7709 10.5245 10.7733 10.5264 10.7758 10.5283C10.7782 10.5302 10.7806 10.5322 10.7829 10.5341C10.7931 10.5426 10.8032 10.5514 10.8132 10.5603C10.8157 10.5625 10.8182 10.5646 10.8207 10.5667C10.825 10.5703 10.8293 10.5739 10.8333 10.5778C10.8392 10.5832 10.8449 10.5888 10.8507 10.5943L10.8593 10.6026L10.8668 10.6096L10.8668 10.6097C10.8718 10.6143 10.8768 10.619 10.8817 10.6239L10.8774 10.6239C11.1294 10.8759 11.2697 11.2185 11.2668 11.5751L11.2668 12.4439C11.2692 12.5238 11.2396 12.6013 11.1845 12.6594C11.1296 12.7174 11.0539 12.7513 10.974 12.7535L8.88787 12.7535C8.80817 12.7513 8.7326 12.7174 8.6779 12.6592C8.62319 12.6011 8.59407 12.5236 8.59682 12.4439ZM19.0248 22.5266C18.8845 23.4804 18.0633 24.1855 17.0991 24.1799L17.0993 24.1799C16.0628 24.1797 15.2076 23.3684 15.1529 22.3331C15.0982 21.298 15.8631 20.4011 16.8939 20.2917C17.9246 20.1823 18.8609 20.8986 19.0248 21.922L21.5537 21.922C22.3649 21.924 23.1433 21.6034 23.7179 21.031C24.2924 20.4586 24.6157 19.6813 24.6167 18.8701L24.6167 15.6279C24.3559 15.7906 24.0643 15.8975 23.7603 15.9424L23.7603 11.3791C24.8922 11.5462 25.7309 12.5169 25.732 13.6608C25.7238 14.1817 25.5443 14.6855 25.2212 15.094L25.2212 18.8703C25.2188 20.8929 23.5765 22.5303 21.5537 22.5266L19.0248 22.5266Z" fill="#29E753"/>
</g>
<defs>
<clipPath id="clip0">
<rect width="30" height="30" fill="white"/>
</clipPath>
</defs>
</svg>
