<svg width="23" height="19" viewBox="0 0 23 19" fill="none" xmlns="http://www.w3.org/2000/svg">
<path d="M19.3159 0.742188H3.56592C2.67081 0.742188 1.81237 1.09777 1.17943 1.7307C0.546497 2.36364 0.190918 3.22208 0.190918 4.11719V15.3672C0.190918 16.2623 0.546497 17.1207 1.17943 17.7537C1.81237 18.3866 2.67081 18.7422 3.56592 18.7422H19.3159C20.211 18.7422 21.0695 18.3866 21.7024 17.7537C22.3353 17.1207 22.6909 16.2623 22.6909 15.3672V4.11719C22.6909 3.22208 22.3353 2.36364 21.7024 1.7307C21.0695 1.09777 20.211 0.742188 19.3159 0.742188ZM18.5622 2.99219L11.4409 8.33594L4.31967 2.99219H18.5622ZM19.3159 16.4922H3.56592C3.26755 16.4922 2.9814 16.3737 2.77042 16.1627C2.55944 15.9517 2.44092 15.6656 2.44092 15.3672V4.39844L10.7659 10.6422C10.9607 10.7882 11.1975 10.8672 11.4409 10.8672C11.6843 10.8672 11.9212 10.7882 12.1159 10.6422L20.4409 4.39844V15.3672C20.4409 15.6656 20.3224 15.9517 20.1114 16.1627C19.9004 16.3737 19.6143 16.4922 19.3159 16.4922Z" fill="white"/>
</svg>
