<svg width="25" height="26" viewBox="0 0 25 26" fill="none" xmlns="http://www.w3.org/2000/svg">
<path d="M10.8781 1.03564L10.8781 3.86406C10.8781 4.02468 10.9475 4.17833 11.069 4.28657L19.8291 11.9303L0.277767 11.9303C0.124995 11.9303 -5.98899e-07 12.056 -5.92183e-07 12.2096L-5.00602e-07 14.3048C-4.93886e-07 14.4584 0.124995 14.5841 0.277767 14.5841L19.8291 14.5841L11.069 22.2278C10.9475 22.3326 10.8781 22.4862 10.8781 22.6503L10.8781 25.4788C10.8781 25.7162 11.1593 25.8454 11.3364 25.6883L24.6172 14.0987C24.7373 13.994 24.8337 13.8645 24.8998 13.719C24.9658 13.5735 25 13.4154 25 13.2555C25 13.0955 24.9658 12.9374 24.8998 12.7919C24.8337 12.6464 24.7373 12.5169 24.6172 12.4122L11.3364 0.826128C11.1558 0.668994 10.8781 0.798193 10.8781 1.03564Z" fill="white"/>
</svg>
