<svg width="25" height="26" viewBox="0 0 25 26" fill="none" xmlns="http://www.w3.org/2000/svg">
<path d="M14.1219 25.4788L14.1219 22.6503C14.1219 22.4897 14.0525 22.3361 13.931 22.2278L5.17086 14.5841L24.7222 14.5841C24.875 14.5841 25 14.4584 25 14.3048L25 12.2096C25 12.056 24.875 11.9303 24.7222 11.9303L5.17086 11.9303L13.931 4.28658C14.0525 4.18182 14.1219 4.02818 14.1219 3.86406L14.1219 1.03564C14.1219 0.798192 13.8407 0.668993 13.6636 0.826127L0.382843 12.4157C0.262671 12.5204 0.166292 12.6499 0.100239 12.7954C0.0341856 12.9409 1.47175e-07 13.099 1.49082e-07 13.2589C1.50989e-07 13.4189 0.0341856 13.577 0.100239 13.7225C0.166292 13.868 0.262671 13.9975 0.382843 14.1022L13.6636 25.6883C13.8442 25.8454 14.1219 25.7162 14.1219 25.4788Z" fill="white"/>
</svg>
