<svg width="25" height="25" viewBox="0 0 25 25" fill="none" xmlns="http://www.w3.org/2000/svg">
<g clip-path="url(#clip0)">
<path fill-rule="evenodd" clip-rule="evenodd" d="M24.0859 12.0264C24.0859 18.6534 18.7129 24.0264 12.0859 24.0264C5.45894 24.0264 0.0859375 18.6534 0.0859375 12.0264C0.0859375 5.39937 5.45894 0.0263672 12.0859 0.0263672C18.7129 0.0263672 24.0859 5.39937 24.0859 12.0264Z" fill="white"/>
<path d="M16.1924 9.2869C16.1923 9.12947 16.129 8.97865 16.0169 8.86814C15.9018 8.75621 15.7476 8.69387 15.587 8.69434C15.2576 8.69387 14.9889 8.95771 14.9834 9.2869V9.74595H16.1924V9.2869Z" fill="#1E232B"/>
<path d="M8.61578 9.2869C8.61767 9.1301 8.55659 8.97928 8.44608 8.86814C8.33777 8.75668 8.18884 8.69387 8.0333 8.69434C7.87682 8.69481 7.7271 8.75747 7.61706 8.86877C7.50702 8.97991 7.44578 9.13041 7.44704 9.2869V9.74595H8.61578V9.2869Z" fill="#1E232B"/>
<path d="M11.8134 12.7423C12.1919 12.7436 12.5552 12.5934 12.8222 12.3251C13.03 12.1165 13.1689 11.8491 13.2199 11.5591H10.407C10.5211 12.2456 11.1175 12.7472 11.8134 12.7423Z" fill="#1E232B"/>
<path d="M9.97259 15.1664C10.0146 15.1274 10.0699 15.1056 10.1272 15.1058H17.5878C18.1481 15.1056 18.604 14.6551 18.6106 14.095V7.81518C18.604 7.25506 18.1483 6.80418 17.5878 6.80371H6.03879C5.48103 6.80513 5.02953 7.25742 5.02905 7.81518V14.095C5.02953 14.6527 5.48118 15.1047 6.03879 15.1058H6.78972C6.92558 15.1044 7.03814 15.2108 7.04412 15.3465V17.7783L9.97259 15.1664ZM14.4999 9.28666C14.5048 8.84964 14.7705 8.45796 15.1748 8.29219C15.5791 8.12626 16.0433 8.2182 16.3538 8.52565C16.5584 8.72622 16.6744 9.00014 16.6762 9.28666V9.9817C16.6747 10.1171 16.5658 10.2268 16.4303 10.2293H14.7615C14.628 10.2293 14.4999 10.1152 14.4999 9.9817V9.28666ZM10.1447 11.0757H13.482C13.546 11.0752 13.6074 11.1002 13.6528 11.1454C13.6983 11.1904 13.7238 11.2517 13.7238 11.3156C13.719 12.3674 12.865 13.2173 11.8134 13.2173C10.7616 13.2173 9.90773 12.3674 9.90285 11.3156C9.90301 11.2517 9.92851 11.1904 9.97385 11.1454C10.0193 11.1004 10.0807 11.0752 10.1447 11.0757ZM6.96352 9.9817V9.28666C6.9621 8.69347 7.4421 8.21158 8.03529 8.21048C8.05323 8.21048 8.06898 8.21096 8.08677 8.2119C8.09354 8.21221 8.09936 8.21284 8.10613 8.21332C8.11699 8.2141 8.12754 8.21473 8.1384 8.21584C8.14926 8.21678 8.15966 8.21835 8.17036 8.21977C8.17713 8.22072 8.1839 8.22135 8.19051 8.22229C8.20373 8.22434 8.2168 8.2267 8.22987 8.22906C8.23396 8.22985 8.23837 8.23048 8.24246 8.23126C8.25931 8.23457 8.27584 8.23835 8.29252 8.24244L8.29378 8.24276C8.30748 8.24622 8.32086 8.25 8.3344 8.25393C8.33771 8.25503 8.34117 8.25582 8.34447 8.25677C8.37675 8.26653 8.40839 8.27786 8.4394 8.29061L8.44302 8.29203C8.45735 8.29801 8.47152 8.30431 8.48569 8.31092C8.48742 8.31171 8.48915 8.31234 8.49073 8.31328C8.50474 8.31989 8.51859 8.32682 8.53229 8.33406C8.53402 8.33501 8.53575 8.3358 8.53748 8.33674C8.55039 8.34367 8.56314 8.35107 8.57574 8.35846C8.5781 8.35988 8.58077 8.36114 8.58313 8.36256C8.59368 8.36885 8.60392 8.37547 8.61431 8.38224C8.61871 8.38507 8.62328 8.38775 8.62753 8.39074C8.63666 8.39672 8.64548 8.40317 8.65429 8.40963C8.6598 8.41356 8.66531 8.41719 8.67066 8.42112C8.6798 8.42789 8.68845 8.43497 8.69727 8.4419C8.70231 8.44584 8.7075 8.44977 8.71238 8.45387C8.72057 8.46064 8.7286 8.46772 8.73663 8.4748C8.74198 8.47953 8.74765 8.48393 8.75268 8.48881C8.75977 8.49527 8.76654 8.50204 8.77346 8.50865C8.77945 8.51432 8.78559 8.51983 8.79141 8.52565H8.78795C8.98961 8.72732 9.10186 9.0014 9.0995 9.28666V9.9817C9.10139 10.0456 9.07777 10.1076 9.03369 10.1541C8.98977 10.2005 8.92916 10.2276 8.86524 10.2293H7.19636C7.1326 10.2276 7.07215 10.2005 7.02838 10.1539C6.98462 10.1075 6.96132 10.0455 6.96352 9.9817Z" fill="#1E232B"/>
<path d="M13.7652 19.3705C14.5366 19.3749 15.1936 18.8109 15.3058 18.0478H17.3289C18.9471 18.0508 20.261 16.7409 20.2629 15.1228V12.1018C20.5214 11.775 20.665 11.372 20.6716 10.9553C20.6706 10.0401 19.9997 9.26354 19.0941 9.12988V12.7805C19.3374 12.7446 19.5707 12.6591 19.7793 12.5289V15.1227C19.7785 15.7716 19.5198 16.3934 19.0603 16.8514C18.6006 17.3093 17.9778 17.5658 17.3289 17.5642H15.3058C15.1747 16.7454 14.4256 16.1724 13.601 16.2599C12.7764 16.3475 12.1645 17.065 12.2083 17.8931C12.252 18.7213 12.9362 19.3704 13.7654 19.3705H13.7652Z" fill="#1E232B"/>
</g>
<defs>
<clipPath id="clip0">
<rect width="24" height="24" fill="white" transform="translate(0.0859375 0.0263672)"/>
</clipPath>
</defs>
</svg>
