<svg width="23" height="23" viewBox="0 0 23 23" fill="none" xmlns="http://www.w3.org/2000/svg">
<path d="M14.5809 11.0938C14.1802 10.8365 13.7453 10.6369 13.2889 10.5008C13.0089 10.4158 12.6989 10.3328 12.3789 10.2538C12.0989 10.1758 11.7669 10.0958 11.3569 10.0058C10.8677 9.9032 10.3874 9.76141 9.92093 9.58177C9.6805 9.48837 9.4683 9.33439 9.30493 9.13478C9.18538 8.97144 9.12858 8.77053 9.14493 8.56878C9.14456 8.35245 9.21674 8.14224 9.34993 7.97177C9.53636 7.75343 9.77816 7.58935 10.0499 7.49677C10.5071 7.3397 10.9888 7.26653 11.4719 7.28077C11.8458 7.27457 12.2185 7.32377 12.5779 7.42677C12.8163 7.49384 13.0408 7.60288 13.2409 7.74878C13.3703 7.84113 13.4807 7.95759 13.5659 8.09177C13.6277 8.20831 13.7119 8.31148 13.8136 8.39534C13.9154 8.47921 14.0328 8.54212 14.159 8.58044C14.2851 8.61877 14.4177 8.63175 14.5489 8.61865C14.6801 8.60556 14.8075 8.56663 14.9236 8.50412C15.0397 8.44161 15.1423 8.35674 15.2255 8.25441C15.3087 8.15209 15.3708 8.03431 15.4083 7.90787C15.4458 7.78144 15.4579 7.64883 15.4439 7.5177C15.43 7.38656 15.3902 7.25948 15.3269 7.14377C15.1161 6.77079 14.8312 6.4448 14.4899 6.18577C14.0956 5.88284 13.6483 5.65598 13.1709 5.51677C12.6198 5.35397 12.0475 5.27442 11.4729 5.28077C10.7425 5.26506 10.0155 5.38369 9.32793 5.63077C8.70616 5.85712 8.15997 6.25265 7.75093 6.77277C7.35916 7.28995 7.14706 7.92096 7.14693 8.56977C7.13071 9.21571 7.33531 9.84785 7.72693 10.3618C8.10501 10.8379 8.60062 11.2074 9.16493 11.4338C9.59133 11.5978 10.0279 11.7341 10.4719 11.8418C10.4799 11.8448 10.4859 11.8518 10.4939 11.8538C10.6859 11.9118 10.9919 11.9888 11.4339 12.0838C11.6069 12.1218 11.7689 12.1628 11.9309 12.2038C11.9469 12.2078 11.9699 12.2128 11.9849 12.2178L12.0029 12.2198C12.2509 12.2838 12.4899 12.3488 12.7089 12.4158C12.978 12.4945 13.2348 12.6103 13.4719 12.7598C13.6198 12.8527 13.7441 12.9786 13.8349 13.1278C13.9229 13.3097 13.9634 13.511 13.9529 13.7128C13.9668 13.974 13.8913 14.2321 13.7389 14.4448C13.5331 14.7126 13.2548 14.9156 12.9369 15.0298C12.4632 15.2126 11.9575 15.2983 11.4499 15.2818C10.863 15.3043 10.2791 15.1864 9.74693 14.9378C9.50113 14.8069 9.28998 14.6194 9.13093 14.3908C9.01929 14.2445 8.94947 14.0706 8.92893 13.8878C8.92893 13.6226 8.82357 13.3682 8.63604 13.1807C8.4485 12.9931 8.19415 12.8878 7.92893 12.8878C7.66371 12.8878 7.40936 12.9931 7.22182 13.1807C7.03429 13.3682 6.92893 13.6226 6.92893 13.8878C6.94541 14.4779 7.13915 15.0493 7.48493 15.5278C7.8305 16.0254 8.2908 16.4326 8.82693 16.7148C9.64266 17.1128 10.5426 17.3073 11.4499 17.2818C12.2209 17.3004 12.9877 17.1627 13.7039 16.8768C14.3697 16.6213 14.9478 16.1793 15.3689 15.6038C15.7692 15.043 15.9744 14.3664 15.9529 13.6778C15.9622 13.1439 15.833 12.6168 15.5779 12.1478C15.3316 11.7243 14.9903 11.3639 14.5809 11.0948V11.0938ZM21.8019 12.9718C22.0715 11.3284 21.946 9.64436 21.4358 8.05907C20.9255 6.47378 20.0452 5.03274 18.8676 3.85513C17.69 2.67752 16.2489 1.79719 14.6636 1.28693C13.0783 0.776678 11.3944 0.651165 9.75093 0.920775C8.53755 0.338994 7.17348 0.148206 5.84704 0.374746C4.5206 0.601286 3.29718 1.23398 2.34566 2.1855C1.39414 3.13702 0.761442 4.36044 0.534902 5.68688C0.308362 7.01333 0.49915 8.37739 1.08093 9.59078C0.811544 11.234 0.937187 12.9178 1.44747 14.5029C1.95775 16.0879 2.83802 17.5288 4.01548 18.7062C5.19294 19.8837 6.63378 20.764 8.21884 21.2742C9.80391 21.7845 11.4877 21.9102 13.1309 21.6408C14.3443 22.2226 15.7084 22.4133 17.0348 22.1868C18.3613 21.9603 19.5847 21.3276 20.5362 20.376C21.4877 19.4245 22.1204 18.2011 22.347 16.8747C22.5735 15.5482 22.3827 14.1842 21.8009 12.9708L21.8019 12.9718ZM15.9409 20.2808C15.1822 20.2804 14.4357 20.0885 13.7709 19.7228C13.5647 19.6091 13.325 19.5716 13.0939 19.6168C11.8615 19.8626 10.5899 19.8318 9.37078 19.5266C8.15169 19.2214 7.01553 18.6495 6.04425 17.8521C5.07297 17.0546 4.2908 16.0515 3.75415 14.9151C3.21749 13.7788 2.93974 12.5375 2.94093 11.2808C2.94196 10.7254 2.99688 10.1715 3.10493 9.62677C3.15017 9.39566 3.11265 9.156 2.99893 8.94977C2.52939 8.09577 2.34978 7.11241 2.48711 6.14756C2.62445 5.18272 3.07131 4.28853 3.76049 3.59946C4.44967 2.91039 5.34393 2.46368 6.3088 2.3265C7.27368 2.18932 8.257 2.36909 9.11093 2.83877C9.31735 2.95297 9.5575 2.99052 9.78893 2.94477C11.0213 2.69914 12.2928 2.73006 13.5118 3.0353C14.7307 3.34055 15.8668 3.91252 16.8379 4.70996C17.8091 5.5074 18.5912 6.51042 19.1278 7.6467C19.6644 8.78297 19.9421 10.0242 19.9409 11.2808C19.9399 11.8361 19.885 12.39 19.7769 12.9348C19.7317 13.1659 19.7692 13.4056 19.8829 13.6118C20.2602 14.2969 20.4523 15.0685 20.4403 15.8505C20.4284 16.6324 20.2128 17.3978 19.8148 18.0711C19.4169 18.7443 18.8503 19.3022 18.171 19.6897C17.4916 20.0772 16.723 20.2809 15.9409 20.2808Z" fill="white"/>
</svg>
