<svg width="21" height="26" viewBox="0 0 21 26" fill="none" xmlns="http://www.w3.org/2000/svg">
<path d="M9.71593 25.1527C9.92748 25.3038 10.181 25.385 10.4409 25.385C10.7009 25.385 10.9544 25.3038 11.1659 25.1527C11.5459 24.884 20.4771 18.4353 20.4408 10.3854C20.4408 4.8717 15.9546 0.385498 10.4409 0.385498C4.92723 0.385498 0.441028 4.8717 0.441028 10.3791C0.404778 18.4353 9.33593 24.884 9.71593 25.1527ZM10.4409 2.88547C14.5771 2.88547 17.9408 6.24918 17.9408 10.3916C17.9671 15.9391 12.4559 20.9203 10.4409 22.554C8.42719 20.919 2.91475 15.9366 2.941 10.3854C2.941 6.24918 6.30471 2.88547 10.4409 2.88547Z" fill="white"/>
</svg>
