<svg width="25" height="25" viewBox="0 0 25 25" fill="none" xmlns="http://www.w3.org/2000/svg">
<path fill-rule="evenodd" clip-rule="evenodd" d="M24.0859 12.0264C24.0859 18.6534 18.7129 24.0264 12.0859 24.0264C5.45894 24.0264 0.0859375 18.6534 0.0859375 12.0264C0.0859375 5.39937 5.45894 0.0263672 12.0859 0.0263672C18.7129 0.0263672 24.0859 5.39937 24.0859 12.0264ZM12.5159 8.88537C11.3489 9.37037 9.01594 10.3754 5.51794 11.8994C4.94994 12.1254 4.65194 12.3464 4.62494 12.5624C4.57894 12.9284 5.03694 13.0724 5.65894 13.2674C5.74394 13.2944 5.83194 13.3214 5.92194 13.3514C6.53494 13.5504 7.35894 13.7834 7.78694 13.7924C8.17594 13.8004 8.60994 13.6404 9.08894 13.3124C12.3569 11.1054 14.0439 9.99037 14.1499 9.96637C14.2249 9.94937 14.3289 9.92737 14.3989 9.99037C14.4689 10.0524 14.4619 10.1704 14.4549 10.2024C14.4089 10.3954 12.6149 12.0644 11.6849 12.9284C11.3949 13.1974 11.1899 13.3884 11.1479 13.4324C11.0539 13.5294 10.9579 13.6224 10.8659 13.7114C10.2959 14.2594 9.86994 14.6714 10.8899 15.3434C11.3799 15.6664 11.7719 15.9334 12.1629 16.1994C12.5899 16.4904 13.0159 16.7804 13.5679 17.1424C13.7079 17.2344 13.8419 17.3294 13.9729 17.4224C14.4699 17.7774 14.9169 18.0954 15.4689 18.0454C15.7889 18.0154 16.1209 17.7144 16.2889 16.8154C16.6859 14.6894 17.4679 10.0854 17.6489 8.18737C17.66 8.02978 17.6532 7.87146 17.6289 7.71537C17.6144 7.5893 17.553 7.4733 17.4569 7.39037C17.3139 7.27337 17.0919 7.24837 16.9919 7.25037C16.5409 7.25837 15.8489 7.49937 12.5159 8.88537Z" fill="white"/>
</svg>
